HIERARCHY
ROOT hip
{
  OFFSET 0 90.174 2.4664
  CHANNELS 6 Xposition Yposition Zposition Zrotation Xrotation Yrotation
  JOINT abdomen
  {
    OFFSET 0 -1.186 -1.5018
    CHANNELS 6 Xposition Yposition Zposition Zrotation Xrotation Yrotation
    JOINT abdomen2
    {
      OFFSET 0 9.964 0.2134
      CHANNELS 6 Xposition Yposition Zposition Zrotation Xrotation Yrotation
      JOINT chest
      {
        OFFSET 0 13.134 -3.2573
        CHANNELS 6 Xposition Yposition Zposition Zrotation Xrotation Yrotation
        JOINT neck
        {
          OFFSET 0 20.686 -1.6905
          CHANNELS 6 Xposition Yposition Zposition Zrotation Xrotation Yrotation
          JOINT head
          {
            OFFSET 0 7.238 -0.1237
            CHANNELS 6 Xposition Yposition Zposition Zrotation Xrotation Yrotation
            End Site
            {
              OFFSET 0 0 0
            }
          }
        }
        JOINT lCollar
        {
          OFFSET 1.7069 20.075 5.0056
          CHANNELS 6 Xposition Yposition Zposition Zrotation Xrotation Yrotation
          JOINT lShldr
          {
            OFFSET 13.6458 -0.047 -4.849
            CHANNELS 6 Xposition Yposition Zposition Zrotation Xrotation Yrotation
            JOINT lForeArm
            {
              OFFSET 28.3255 -0.9759 2.2888
              CHANNELS 6 Xposition Yposition Zposition Zrotation Xrotation Yrotation
              JOINT lHand
              {
                OFFSET 22.1583 -0.53 10.8316
                CHANNELS 6 Xposition Yposition Zposition Zrotation Xrotation Yrotation
                JOINT lThumb1
                {
                  OFFSET 0.786 0.112 2.5817
                  CHANNELS 6 Xposition Yposition Zposition Zrotation Xrotation Yrotation
                  JOINT lThumb2
                  {
                    OFFSET 0.3601 -0.878 4.2331
                    CHANNELS 6 Xposition Yposition Zposition Zrotation Xrotation Yrotation
                    JOINT lThumb2_End
                    {
                      OFFSET 1.8127 -1.216 2.2227
                      CHANNELS 6 Xposition Yposition Zposition Zrotation Xrotation Yrotation
                      End Site
                      {
                        OFFSET 0.0181 -0.0122 0.0222
                      }
                    }
                  }
                }
                JOINT lCarpal1
                {
                  OFFSET 0.9571 1.114 1.7695
                  CHANNELS 6 Xposition Yposition Zposition Zrotation Xrotation Yrotation
                  JOINT lIndex1
                  {
                    OFFSET 4.1246 0.487 4.1451
                    CHANNELS 6 Xposition Yposition Zposition Zrotation Xrotation Yrotation
                    JOINT lIndex2
                    {
                      OFFSET 3.4052 -1.454 2.7682
                      CHANNELS 6 Xposition Yposition Zposition Zrotation Xrotation Yrotation
                      JOINT lIndex2_End
                      {
                        OFFSET 1.4531 -1.795 1.2713
                        CHANNELS 6 Xposition Yposition Zposition Zrotation Xrotation Yrotation
                        End Site
                        {
                          OFFSET 0.0145 -0.0179 0.0127
                        }
                      }
                    }
                  }
                  JOINT lMid1
                  {
                    OFFSET 5.6954 0.21 2.1184
                    CHANNELS 6 Xposition Yposition Zposition Zrotation Xrotation Yrotation
                    JOINT lMid2
                    {
                      OFFSET 3.9766 -1.54 2.3863
                      CHANNELS 6 Xposition Yposition Zposition Zrotation Xrotation Yrotation
                      JOINT lMid2_End
                      {
                        OFFSET 1.4042 -1.926 1.125
                        CHANNELS 6 Xposition Yposition Zposition Zrotation Xrotation Yrotation
                        End Site
                        {
                          OFFSET 0.014 -0.0193 0.0113
                        }
                      }
                    }
                  }
                }
                JOINT lCarpal2
                {
                  OFFSET 2.0956 0.66 -0.3894
                  CHANNELS 6 Xposition Yposition Zposition Zrotation Xrotation Yrotation
                  JOINT lRing1
                  {
                    OFFSET 5.0395 -0.09 2.4971
                    CHANNELS 6 Xposition Yposition Zposition Zrotation Xrotation Yrotation
                    JOINT lRing2
                    {
                      OFFSET 3.7921 -1.552 1.4806
                      CHANNELS 6 Xposition Yposition Zposition Zrotation Xrotation Yrotation
                      JOINT lRing2_End
                      {
                        OFFSET 1.4655 -1.808 0.9609
                        CHANNELS 6 Xposition Yposition Zposition Zrotation Xrotation Yrotation
                        End Site
                        {
                          OFFSET 0.0147 -0.0181 0.0096
                        }
                      }
                    }
                  }
                  JOINT lPinky1
                  {
                    OFFSET 4.9141 -1.269 0.3591
                    CHANNELS 6 Xposition Yposition Zposition Zrotation Xrotation Yrotation
                    JOINT lPinky2
                    {
                      OFFSET 3.1477 -1.685 0.8462
                      CHANNELS 6 Xposition Yposition Zposition Zrotation Xrotation Yrotation
                      JOINT lPinky2_End
                      {
                        OFFSET 0.8055 -1.585 0.7955
                        CHANNELS 6 Xposition Yposition Zposition Zrotation Xrotation Yrotation
                        End Site
                        {
                          OFFSET 0.0081 -0.0158 0.008
                        }
                      }
                    }
                  }
                }
              }
            }
          }
        }
        JOINT rCollar
        {
          OFFSET -1.7069 20.075 5.0056
          CHANNELS 6 Xposition Yposition Zposition Zrotation Xrotation Yrotation
          JOINT rShldr
          {
            OFFSET -13.6458 -0.047 -4.849
            CHANNELS 6 Xposition Yposition Zposition Zrotation Xrotation Yrotation
            JOINT rForeArm
            {
              OFFSET -28.3255 -0.9759 2.2888
              CHANNELS 6 Xposition Yposition Zposition Zrotation Xrotation Yrotation
              JOINT rHand
              {
                OFFSET -22.1583 -0.53 10.8316
                CHANNELS 6 Xposition Yposition Zposition Zrotation Xrotation Yrotation
                JOINT rThumb1
                {
                  OFFSET -0.786 0.112 2.5817
                  CHANNELS 6 Xposition Yposition Zposition Zrotation Xrotation Yrotation
                  JOINT rThumb2
                  {
                    OFFSET -0.3601 -0.878 4.2331
                    CHANNELS 6 Xposition Yposition Zposition Zrotation Xrotation Yrotation
                    JOINT rThumb2_End
                    {
                      OFFSET -1.8127 -1.216 2.2227
                      CHANNELS 6 Xposition Yposition Zposition Zrotation Xrotation Yrotation
                      End Site
                      {
                        OFFSET -0.0181 -0.0122 0.0222
                      }
                    }
                  }
                }
                JOINT rCarpal1
                {
                  OFFSET -0.9571 1.114 1.7695
                  CHANNELS 6 Xposition Yposition Zposition Zrotation Xrotation Yrotation
                  JOINT rIndex1
                  {
                    OFFSET -4.1246 0.487 4.1451
                    CHANNELS 6 Xposition Yposition Zposition Zrotation Xrotation Yrotation
                    JOINT rIndex2
                    {
                      OFFSET -3.4052 -1.454 2.7682
                      CHANNELS 6 Xposition Yposition Zposition Zrotation Xrotation Yrotation
                      JOINT rIndex2_End
                      {
                        OFFSET -1.4531 -1.795 1.2713
                        CHANNELS 6 Xposition Yposition Zposition Zrotation Xrotation Yrotation
                        End Site
                        {
                          OFFSET -0.0145 -0.018 0.0127
                        }
                      }
                    }
                  }
                  JOINT rMid1
                  {
                    OFFSET -5.6954 0.21 2.1184
                    CHANNELS 6 Xposition Yposition Zposition Zrotation Xrotation Yrotation
                    JOINT rMid2
                    {
                      OFFSET -3.9766 -1.54 2.3863
                      CHANNELS 6 Xposition Yposition Zposition Zrotation Xrotation Yrotation
                      JOINT rMid2_End
                      {
                        OFFSET -1.4042 -1.926 1.125
                        CHANNELS 6 Xposition Yposition Zposition Zrotation Xrotation Yrotation
                        End Site
                        {
                          OFFSET -0.014 -0.0193 0.0113
                        }
                      }
                    }
                  }
                }
                JOINT rCarpal2
                {
                  OFFSET -2.0956 0.66 -0.3894
                  CHANNELS 6 Xposition Yposition Zposition Zrotation Xrotation Yrotation
                  JOINT rRing1
                  {
                    OFFSET -5.0395 -0.09 2.4971
                    CHANNELS 6 Xposition Yposition Zposition Zrotation Xrotation Yrotation
                    JOINT rRing2
                    {
                      OFFSET -3.7921 -1.552 1.4806
                      CHANNELS 6 Xposition Yposition Zposition Zrotation Xrotation Yrotation
                      JOINT rRing2_End
                      {
                        OFFSET -1.4655 -1.808 0.9609
                        CHANNELS 6 Xposition Yposition Zposition Zrotation Xrotation Yrotation
                        End Site
                        {
                          OFFSET -0.0147 -0.0181 0.0096
                        }
                      }
                    }
                  }
                  JOINT rPinky1
                  {
                    OFFSET -4.9141 -1.269 0.3592
                    CHANNELS 6 Xposition Yposition Zposition Zrotation Xrotation Yrotation
                    JOINT rPinky2
                    {
                      OFFSET -3.1477 -1.685 0.8462
                      CHANNELS 6 Xposition Yposition Zposition Zrotation Xrotation Yrotation
                      JOINT rPinky2_End
                      {
                        OFFSET -0.8055 -1.585 0.7955
                        CHANNELS 6 Xposition Yposition Zposition Zrotation Xrotation Yrotation
                        End Site
                        {
                          OFFSET -0.0081 -0.0158 0.008
                        }
                      }
                    }
                  }
                }
              }
            }
          }
        }
      }
    }
  }
  JOINT lThigh
  {
    OFFSET 8.367 -8.2066 0.5982
    CHANNELS 6 Xposition Yposition Zposition Zrotation Xrotation Yrotation
    JOINT lShin
    {
      OFFSET 2.1923 -43.463 -0.4932
      CHANNELS 6 Xposition Yposition Zposition Zrotation Xrotation Yrotation
      JOINT lFoot
      {
        OFFSET 0.7333 -45.8593 -2.6451
        CHANNELS 6 Xposition Yposition Zposition Zrotation Xrotation Yrotation
        End Site
        {
          OFFSET 2.6618 -4.2699 12.3931
        }
      }
    }
  }
  JOINT rThigh
  {
    OFFSET -8.367 -8.2066 0.5982
    CHANNELS 6 Xposition Yposition Zposition Zrotation Xrotation Yrotation
    JOINT rShin
    {
      OFFSET -2.1923 -43.463 -0.4931
      CHANNELS 6 Xposition Yposition Zposition Zrotation Xrotation Yrotation
      JOINT rFoot
      {
        OFFSET -0.7333 -45.8593 -2.6451
        CHANNELS 6 Xposition Yposition Zposition Zrotation Xrotation Yrotation
        End Site
        {
          OFFSET -2.6618 -4.2699 12.3931
        }
      }
    }
  }
}
MOTION
Frames:	4
Frame Time:	0.0333333
0 90.174 2.4664 0 0 -0 0 -1.186 -1.5018 0 0 -0 0 9.964 0.2134 0 0 -0 0 13.134 -3.2573 0 0 -0 0 20.686 -1.6905 0 0 -0 0 7.238 -0.1237 0 0 -0 1.7069 20.075 5.0056 0 0 -0 13.6458 -0.047 -4.849 1.66051 0.0835086 5.75766 28.3255 -0.9759 2.2888 -0.0175111 0.895433 15.7816 22.1583 -0.53 10.8316 7.95139e-016 -1.98785e-016 -0 0.786 0.112 2.5817 5.46658e-016 -3.97569e-016 -0 0.3601 -0.878 4.2331 5.96354e-016 0 -0 1.8127 -1.216 2.2227 3.97569e-016 1.98785e-016 9.54166e-015 0.9571 1.114 1.7695 1.49089e-016 -3.97569e-016 -0 4.1246 0.487 4.1451 6.4605e-016 0 3.18055e-015 3.4052 -1.454 2.7682 5.96354e-016 0 3.18055e-015 1.4531 -1.795 1.2713 8.94531e-016 -1.98785e-016 6.36111e-015 5.6954 0.21 2.1184 6.4605e-016 0 3.18055e-015 3.9766 -1.54 2.3863 5.96354e-016 0 3.18055e-015 1.4042 -1.926 1.125 8.94531e-016 -1.98785e-016 6.36111e-015 2.0956 0.66 -0.3894 1.49089e-016 -3.97569e-016 -0 5.0395 -0.09 2.4971 6.4605e-016 0 3.18055e-015 3.7921 -1.552 1.4806 5.96354e-016 0 3.18055e-015 1.4655 -1.808 0.9609 8.94531e-016 -1.98785e-016 6.36111e-015 4.9141 -1.269 0.3591 6.4605e-016 0 3.18055e-015 3.1477 -1.685 0.8462 5.96354e-016 0 3.18055e-015 0.8055 -1.585 0.7955 8.94531e-016 -1.98785e-016 6.36111e-015 -1.7069 20.075 5.0056 0 0 -0 -13.6458 -0.047 -4.849 -1.4496 0.0636048 -5.0245 -28.3255 -0.9759 2.2888 -1.74811 1.20616 -16.8394 -22.1583 -0.53 10.8316 -1.19271e-015 1.98785e-016 -3.18055e-015 -0.786 0.112 2.5817 -3.97569e-016 1.98785e-016 -3.18055e-015 -0.3601 -0.878 4.2331 -2.98177e-016 1.98785e-016 -3.18055e-015 -1.8127 -1.216 2.2227 -2.98177e-016 3.97569e-016 -0 -0.9571 1.114 1.7695 4.96962e-016 0 -6.36111e-015 -4.1246 0.487 4.1451 -9.93923e-017 3.97569e-016 -0 -3.4052 -1.454 2.7682 -8.94531e-016 5.96354e-016 -0 -1.4531 -1.795 1.2713 -3.97569e-016 3.97569e-016 -0 -5.6954 0.21 2.1184 -9.93923e-017 3.97569e-016 -0 -3.9766 -1.54 2.3863 -8.94531e-016 5.96354e-016 -0 -1.4042 -1.926 1.125 -3.97569e-016 3.97569e-016 -0 -2.0956 0.66 -0.3894 4.96962e-016 0 -6.36111e-015 -5.0395 -0.09 2.4971 -9.93923e-017 3.97569e-016 -0 -3.7921 -1.552 1.4806 -8.94531e-016 5.96354e-016 -0 -1.4655 -1.808 0.9609 -3.97569e-016 3.97569e-016 -0 -4.9141 -1.269 0.3592 -9.93923e-017 3.97569e-016 -0 -3.1477 -1.685 0.8462 -8.94531e-016 5.96354e-016 -0 -0.8055 -1.585 0.7955 -3.97569e-016 3.97569e-016 -0 8.367 -8.2066 0.5982 -4.66115 -1.03232 0.120763 2.1923 -43.463 -0.4932 0.00990601 1.55097 0.177175 0.7333 -45.8593 -2.6451 4.65196 -0.54114 -0.255042 -8.367 -8.2066 0.5982 4.66115 -1.03222 -0.120763 -2.1923 -43.463 -0.4931 -0.00990459 1.5509 -0.177176 -0.7333 -45.8593 -2.6451 -4.65196 -0.541171 0.255041 
-0.79175 87.6927 3.65826 0 0.0223189 -0 0 -1.186 -1.5018 -0.158166 3.32277 -0.0638175 0 9.964 0.2134 -0.31341 6.6457 -0.118729 -2.22045e-016 13.134 -3.2573 -0.31341 6.6457 -0.118729 -4.44089e-016 20.686 -1.6905 1.31623e-005 -0.200527 -3.28496e-007 8.88178e-016 7.238 -0.1237 -3.76556e-007 -0.150491 -1.68955e-008 1.7069 20.075 5.0056 -10.8761 -5.28917 5.34521 13.6458 -0.047 -4.849 -25.6575 13.9934 -24.4943 28.3255 -0.9759 2.2888 -6.30209 -12.6289 -0.896739 22.1583 -0.53 10.8316 -3.66207 1.44667 -0.0206199 0.786 0.112 2.5817 -3.32306e-006 1.08771e-006 1.51188e-006 0.3601 -0.878 4.2331 -1.43235e-007 1.13533e-006 5.71518e-007 1.8127 -1.216 2.2227 -9.549e-008 7.56887e-007 3.81012e-007 0.9571 1.114 1.7695 1.78906e-015 -1.59028e-015 3.18055e-015 4.1246 0.487 4.1451 -3.32306e-006 1.08771e-006 1.51188e-006 3.4052 -1.454 2.7682 -1.43235e-007 1.13533e-006 5.71518e-007 1.4531 -1.795 1.2713 -9.549e-008 7.56887e-007 3.81012e-007 5.6954 0.21 2.1184 -3.32306e-006 1.08771e-006 1.51188e-006 3.9766 -1.54 2.3863 -1.43235e-007 1.13533e-006 5.71518e-007 1.4042 -1.926 1.125 -9.549e-008 7.56887e-007 3.81012e-007 2.0956 0.66 -0.3894 1.78906e-015 -1.59028e-015 3.18055e-015 5.0395 -0.09 2.4971 -3.32306e-006 1.08771e-006 1.51188e-006 3.7921 -1.552 1.4806 -1.43235e-007 1.13533e-006 5.71518e-007 1.4655 -1.808 0.9609 -9.549e-008 7.56887e-007 3.81012e-007 4.9141 -1.269 0.3591 -3.32306e-006 1.08771e-006 1.51188e-006 3.1477 -1.685 0.8462 -1.43235e-007 1.13533e-006 5.71518e-007 0.8055 -1.585 0.7955 -9.549e-008 7.56887e-007 3.81012e-007 -1.7069 20.075 5.0056 4.51556 -0.206809 2.32924 -13.6458 -0.047 -4.849 36.1405 23.012 13.019 -28.3255 -0.9759 2.2888 4.2771 -12.8561 -0.662408 -22.1583 -0.53 10.8316 3.76452 1.51751 0.0500361 -0.786 0.112 2.5817 1.07344e-014 6.36111e-015 -3.97569e-015 -0.3601 -0.878 4.2331 2.78299e-015 6.36111e-015 -1.59028e-015 -1.8127 -1.216 2.2227 -1.98785e-016 3.18055e-015 -2.78299e-015 -0.9571 1.114 1.7695 9.34288e-015 3.18055e-015 -1.19271e-015 -4.1246 0.487 4.1451 7.95139e-015 3.18055e-015 5.1684e-015 -3.4052 -1.454 2.7682 9.14409e-015 0 -1.59028e-015 -1.4531 -1.795 1.2713 6.36111e-015 6.36111e-015 -5.96354e-015 -5.6954 0.21 2.1184 7.95139e-015 3.18055e-015 5.1684e-015 -3.9766 -1.54 2.3863 9.14409e-015 0 -1.59028e-015 -1.4042 -1.926 1.125 6.36111e-015 6.36111e-015 -5.96354e-015 -2.0956 0.66 -0.3894 9.34288e-015 3.18055e-015 -1.19271e-015 -5.0395 -0.09 2.4971 7.95139e-015 3.18055e-015 5.1684e-015 -3.7921 -1.552 1.4806 9.14409e-015 0 -1.59028e-015 -1.4655 -1.808 0.9609 6.36111e-015 6.36111e-015 -5.96354e-015 -4.9141 -1.269 0.3592 7.95139e-015 3.18055e-015 5.1684e-015 -3.1477 -1.685 0.8462 9.14409e-015 0 -1.59028e-015 -0.8055 -1.585 0.7955 6.36111e-015 6.36111e-015 -5.96354e-015 8.367 -8.2066 0.5982 4.63312 -2.59871 6.36201 2.1923 -43.463 -0.4932 1.7397 1.79813 0.054152 0.7333 -45.8593 -2.6451 -2.78035 9.89912 5.28127 -8.367 -8.2066 0.5982 2.6665 -1.11509 -5.18216 -2.1923 -43.463 -0.4931 1.66978 0.217112 -0.305829 -0.7333 -45.8593 -2.6451 2.6973 3.48316 -3.80676 
-1.41319 85.6993 4.60474 0 0 -0 0 -1.186 -1.5018 -0.26431 5.8981 -0.135634 0 9.964 0.2134 -0.518655 11.7967 -0.245713 0 13.134 -3.2573 -0.518655 11.7967 -0.245713 0 20.686 -1.6905 1.13057e-005 -0.400611 -5.59232e-007 -4.44089e-016 7.238 -0.1237 1.14042e-008 -0.267537 4.03882e-008 1.7069 20.075 5.0056 -18.728 -9.32578 9.51493 13.6458 -0.047 -4.849 -37.7703 17.0269 -49.5272 28.3255 -0.9759 2.2888 -16.6196 -20.304 -15.4739 22.1583 -0.53 10.8316 -6.51218 2.57103 0.0273043 0.786 0.112 2.5817 4.06699e-007 -1.12565e-006 -1.20095e-006 0.3601 -0.878 4.2331 -0 -1.59028e-015 -0 1.8127 -1.216 2.2227 4.06699e-007 -1.12565e-006 -1.20095e-006 0.9571 1.114 1.7695 -7.95139e-016 0 -0 4.1246 0.487 4.1451 4.06699e-007 -1.12565e-006 -1.20095e-006 3.4052 -1.454 2.7682 -7.95139e-016 0 -3.18055e-015 1.4531 -1.795 1.2713 4.06699e-007 -1.12565e-006 -1.20095e-006 5.6954 0.21 2.1184 4.06699e-007 -1.12565e-006 -1.20095e-006 3.9766 -1.54 2.3863 -7.95139e-016 0 -3.18055e-015 1.4042 -1.926 1.125 4.06699e-007 -1.12565e-006 -1.20095e-006 2.0956 0.66 -0.3894 -7.95139e-016 0 -0 5.0395 -0.09 2.4971 4.06699e-007 -1.12565e-006 -1.20095e-006 3.7921 -1.552 1.4806 -7.95139e-016 0 -3.18055e-015 1.4655 -1.808 0.9609 4.06699e-007 -1.12565e-006 -1.20095e-006 4.9141 -1.269 0.3591 4.06699e-007 -1.12565e-006 -1.20095e-006 3.1477 -1.685 0.8462 -7.95139e-016 0 -3.18055e-015 0.8055 -1.585 0.7955 4.06699e-007 -1.12565e-006 -1.20095e-006 -1.7069 20.075 5.0056 8.08022 -0.25199 4.15383 -13.6458 -0.047 -4.849 53.9011 36.3214 32.479 -28.3255 -0.9759 2.2888 14.5358 -21.0514 13.796 -22.1583 -0.53 10.8316 6.49224 2.60875 0.025399 -0.786 0.112 2.5817 -7.95139e-016 0 -1.59028e-015 -0.3601 -0.878 4.2331 1.59028e-015 6.36111e-015 -1.19271e-015 -1.8127 -1.216 2.2227 -2.18663e-015 6.36111e-015 -7.95139e-016 -0.9571 1.114 1.7695 -7.95139e-016 0 -1.59028e-015 -4.1246 0.487 4.1451 -1.78906e-015 3.18055e-015 5.56597e-015 -3.4052 -1.454 2.7682 -9.93923e-016 3.18055e-015 -0 -1.4531 -1.795 1.2713 -1.98785e-015 0 -7.95139e-016 -5.6954 0.21 2.1184 -1.78906e-015 3.18055e-015 5.56597e-015 -3.9766 -1.54 2.3863 -9.93923e-016 3.18055e-015 -0 -1.4042 -1.926 1.125 -1.98785e-015 0 -7.95139e-016 -2.0956 0.66 -0.3894 -7.95139e-016 0 -1.59028e-015 -5.0395 -0.09 2.4971 -1.78906e-015 3.18055e-015 5.56597e-015 -3.7921 -1.552 1.4806 -9.93923e-016 3.18055e-015 -0 -1.4655 -1.808 0.9609 -1.98785e-015 0 -7.95139e-016 -4.9141 -1.269 0.3592 -1.78906e-015 3.18055e-015 5.56597e-015 -3.1477 -1.685 0.8462 -9.93923e-016 3.18055e-015 -0 -0.8055 -1.585 0.7955 -1.98785e-015 0 -7.95139e-016 8.367 -8.2066 0.5982 12.0814 -3.91204 11.2111 2.1923 -43.463 -0.4932 3.06641 2.33411 0.00862977 0.7333 -45.8593 -2.6451 -9.9658 17.6488 9.85618 -8.367 -8.2066 0.5982 1.06739 -1.42689 -9.11432 -2.1923 -43.463 -0.4931 2.97134 -0.157342 -0.486986 -0.7333 -45.8593 -2.6451 8.72993 6.20446 -7.03055 
-1.49871 85.4208 4.81423 -0 -0.15623 -0 0 -1.186 -1.5018 -0.270872 6.23255 -0.142343 2.22045e-016 9.964 0.2134 -0.530816 12.4657 -0.257142 -4.44089e-016 13.134 -3.2573 -0.530816 12.4657 -0.257141 0 20.686 -1.6905 9.19313e-006 -0.600583 -1.07184e-007 -8.88178e-016 7.238 -0.1237 3.12369e-008 -0.284258 7.11925e-008 1.7069 20.075 5.0056 -20.1144 -9.9379 9.83252 13.6458 -0.047 -4.849 -39.0465 16.9083 -52.3187 28.3255 -0.9759 2.2888 -18.2391 -21.0013 -17.5195 22.1583 -0.53 10.8316 -6.91963 2.73141 0.0387366 0.786 0.112 2.5817 -1.09824e-006 1.74147e-006 -1.47454e-006 0.3601 -0.878 4.2331 -7.95139e-016 -1.59028e-015 3.18055e-015 1.8127 -1.216 2.2227 0 0 -0 0.9571 1.114 1.7695 7.95139e-016 -1.59028e-015 9.54166e-015 4.1246 0.487 4.1451 -1.09824e-006 1.74147e-006 -1.47454e-006 3.4052 -1.454 2.7682 -1.59028e-015 0 6.36111e-015 1.4531 -1.795 1.2713 0 0 -0 5.6954 0.21 2.1184 -1.09824e-006 1.74147e-006 -1.47454e-006 3.9766 -1.54 2.3863 -1.59028e-015 0 6.36111e-015 1.4042 -1.926 1.125 0 0 -0 2.0956 0.66 -0.3894 7.95139e-016 -1.59028e-015 9.54166e-015 5.0395 -0.09 2.4971 -1.09824e-006 1.74147e-006 -1.47454e-006 3.7921 -1.552 1.4806 -1.59028e-015 0 6.36111e-015 1.4655 -1.808 0.9609 0 0 -0 4.9141 -1.269 0.3591 -1.09824e-006 1.74147e-006 -1.47454e-006 3.1477 -1.685 0.8462 -1.59028e-015 0 6.36111e-015 0.8055 -1.585 0.7955 0 0 -0 -1.7069 20.075 5.0056 8.7449 0.185009 4.46485 -13.6458 -0.047 -4.849 55.4565 37.5519 35.7367 -28.3255 -0.9759 2.2888 16.3961 -21.6822 16.5183 -22.1583 -0.53 10.8316 6.10415 2.41974 0.0373704 -0.786 0.112 2.5817 8.74653e-015 -6.36111e-015 1.98785e-015 -0.3601 -0.878 4.2331 3.00671e-007 9.19764e-007 -1.38625e-006 -1.8127 -1.216 2.2227 -1.35174e-014 6.36111e-015 -7.15625e-015 -0.9571 1.114 1.7695 8.34896e-015 -6.36111e-015 2.78299e-015 -4.1246 0.487 4.1451 3.97569e-016 0 2.78299e-015 -3.4052 -1.454 2.7682 3.00671e-007 9.19764e-007 -1.38625e-006 -1.4531 -1.795 1.2713 -1.03368e-014 0 -3.57812e-015 -5.6954 0.21 2.1184 3.97569e-016 0 2.78299e-015 -3.9766 -1.54 2.3863 3.00671e-007 9.19764e-007 -1.38625e-006 -1.4042 -1.926 1.125 -1.03368e-014 0 -3.57812e-015 -2.0956 0.66 -0.3894 8.34896e-015 -6.36111e-015 2.78299e-015 -5.0395 -0.09 2.4971 3.97569e-016 0 2.78299e-015 -3.7921 -1.552 1.4806 3.00671e-007 9.19764e-007 -1.38625e-006 -1.4655 -1.808 0.9609 -1.03368e-014 0 -3.57812e-015 -4.9141 -1.269 0.3592 3.97569e-016 0 2.78299e-015 -3.1477 -1.685 0.8462 3.00671e-007 9.19764e-007 -1.38625e-006 -0.8055 -1.585 0.7955 -1.03368e-014 0 -3.57812e-015 8.367 -8.2066 0.5982 13.1567 -3.89134 11.9325 2.1923 -43.463 -0.4932 3.16368 2.412 -0.00318516 0.7333 -45.8593 -2.6451 -11.1111 18.5025 10.4631 -8.367 -8.2066 0.5982 0.835901 -1.1096 -9.70292 -2.1923 -43.463 -0.4931 3.15683 -0.415863 -0.49576 -0.7333 -45.8593 -2.6451 9.61571 6.58392 -7.49588 
